<?xml version="1.0" encoding="UTF-8" standalone="no"?>
<!-- Created with Inkscape (http://www.inkscape.org/) -->

<svg
   width="210mm"
   height="297mm"
   viewBox="0 0 210 297"
   version="1.1"
   id="svg33557"
   inkscape:version="1.2.1 (9c6d41e410, 2022-07-14)"
   sodipodi:docname="characters.svg"
   xmlns:inkscape="http://www.inkscape.org/namespaces/inkscape"
   xmlns:sodipodi="http://sodipodi.sourceforge.net/DTD/sodipodi-0.dtd"
   xmlns:xlink="http://www.w3.org/1999/xlink"
   xmlns="http://www.w3.org/2000/svg"
   xmlns:svg="http://www.w3.org/2000/svg">
  <sodipodi:namedview
     id="namedview33559"
     pagecolor="#d8d8d8"
     bordercolor="#000000"
     borderopacity="0.25"
     inkscape:showpageshadow="2"
     inkscape:pageopacity="0"
     inkscape:pagecheckerboard="0"
     inkscape:deskcolor="#d1d1d1"
     inkscape:document-units="mm"
     showgrid="false"
     inkscape:zoom="1.0444209"
     inkscape:cx="377.72127"
     inkscape:cy="193.40861"
     inkscape:window-width="1920"
     inkscape:window-height="1009"
     inkscape:window-x="1912"
     inkscape:window-y="-8"
     inkscape:window-maximized="1"
     inkscape:current-layer="layer1" />
  <defs
     id="defs33554">
    <linearGradient
       inkscape:collect="always"
       id="linearGradient65234">
      <stop
         style="stop-color:#ff2000;stop-opacity:1;"
         offset="0"
         id="stop65230" />
      <stop
         style="stop-color:#ffb000;stop-opacity:1;"
         offset="1"
         id="stop65232" />
    </linearGradient>
    <linearGradient
       inkscape:collect="always"
       id="linearGradient49203">
      <stop
         style="stop-color:#ffffff;stop-opacity:1;"
         offset="0"
         id="stop49199" />
      <stop
         style="stop-color:#878787;stop-opacity:1;"
         offset="1"
         id="stop49201" />
    </linearGradient>
    <linearGradient
       inkscape:collect="always"
       xlink:href="#linearGradient49203"
       id="linearGradient49205"
       x1="32.818455"
       y1="13.972256"
       x2="32.818455"
       y2="20.42099"
       gradientUnits="userSpaceOnUse" />
    <linearGradient
       inkscape:collect="always"
       xlink:href="#linearGradient65234"
       id="linearGradient65236"
       x1="173.04102"
       y1="73.443909"
       x2="171.60796"
       y2="40.125454"
       gradientUnits="userSpaceOnUse"
       gradientTransform="translate(-7.8817853,-3.5826297)" />
  </defs>
  <g
     inkscape:label="Ebene 1"
     inkscape:groupmode="layer"
     id="layer1">
    <ellipse
       style="fill:none;stroke-width:10"
       id="path33682"
       cx="37.796745"
       cy="64.666466"
       rx="0.53739446"
       ry="0.17913148" />
    <rect
       style="fill:#ff0000;stroke-width:10"
       id="rect34101"
       width="35.826298"
       height="6.8069963"
       x="29.019299"
       y="45.141132" />
    <ellipse
       style="fill:#00ff00;stroke-width:10"
       id="path34155"
       cx="48.186367"
       cy="48.544628"
       rx="6.9861279"
       ry="9.493969" />
    <rect
       style="fill:url(#linearGradient49205);stroke-width:1;stroke:#757575;stroke-opacity:1;stroke-dasharray:none;fill-opacity:1"
       id="rect49018"
       width="36.542824"
       height="6.4487333"
       x="15.047045"
       y="13.972256" />
    <path
       style="fill:#ab430b;fill-opacity:1;stroke:#141414;stroke-width:1;stroke-dasharray:none;stroke-opacity:1"
       d="m 101.03016,76.31001 20.06272,11.464417 22.57057,-38.334137 -2.50784,-9.673101 5.7322,-8.956574 -8.24004,-4.299156 -4.65742,9.314838 -9.31484,1.074788 z"
       id="path65170" />
    <path
       style="fill:#c8c8c8;fill-opacity:1;stroke:#757575;stroke-width:1;stroke-dasharray:none;stroke-opacity:1"
       d="m 138.64777,28.302775 6.09047,-11.464416 h 19.70446 l 8.59831,8.598311 5.73221,15.047045 -22.57057,5.732206 -1.07479,-20.779251 -8.59831,-2.149577 -3.22437,9.6731 z"
       id="path65172" />
    <path
       style="fill:url(#linearGradient65236);fill-opacity:1;stroke:none;stroke-width:1;stroke-dasharray:none;stroke-opacity:1"
       d="m 143.30518,64.487332 15.40531,4.657421 16.12183,0.716526 3.22437,-6.090473 4.29915,-8.59831 c 0,0 -0.71652,-9.314836 -0.71652,-10.747888 0,-1.433052 -0.35827,-20.062727 -0.71653,-21.854042 -0.35826,-1.791314 -5.37394,-20.0627253 -5.37394,-20.0627253 l 0.35826,32.9601923 -3.22437,-22.212304 c 0,0 2.86611,25.078409 1.79132,22.570566 -1.07479,-2.50784 -7.52352,-26.1531947 -7.52352,-24.720144 0,1.433052 6.44873,32.243666 5.7322,30.810614 -0.71652,-1.433049 -10.38962,-36.9010836 -10.38962,-34.3932427 0,2.5078407 8.24005,35.8262947 8.24005,35.8262947 0,0 -13.97226,-24.36188 -13.97226,-22.570565 0,1.791314 0.71652,21.495777 0.71652,21.495777 l -3.58262,-28.302774 c 0,0 -4.65742,32.960193 -5.01569,30.452353 -0.35826,-2.507843 -1.79131,-29.377564 -2.50783,-27.944512 -0.71653,1.433052 -2.86611,22.212303 -2.86611,22.212303 l -2.50784,11.822679 c 0,0 2.50784,-14.330519 4.65742,-12.18094 2.14958,2.149578 10.74789,20.062724 10.74789,20.062724 l -16.83836,7.881786 z"
       id="path65174" />
    <ellipse
       style="fill:#ffd47e;fill-opacity:1;stroke:#141414;stroke-width:1;stroke-dasharray:none;stroke-opacity:1"
       id="path66853"
       cx="37.617611"
       cy="81.325699"
       rx="16.659227"
       ry="10.568758" />
    <circle
       style="fill:#3d8e00;fill-opacity:1;stroke:#141414;stroke-width:1;stroke-dasharray:none;stroke-opacity:1"
       id="path66849"
       cx="37.25935"
       cy="75.056091"
       r="8.5983114" />
    <circle
       style="fill:#348600;fill-opacity:1;stroke:#141414;stroke-width:1;stroke-dasharray:none;stroke-opacity:1"
       id="path66851"
       cx="37.43848"
       cy="75.243454"
       r="5.0156817" />
    <ellipse
       style="fill:#ffc46c;fill-opacity:1;stroke:#141414;stroke-width:1;stroke-dasharray:none;stroke-opacity:1"
       id="path66855"
       cx="57.949036"
       cy="81.504829"
       rx="4.567853"
       ry="4.8365502" />
    <ellipse
       style="fill:#ffaf50;fill-opacity:1;stroke:#141414;stroke-width:1;stroke-dasharray:none;stroke-opacity:1"
       id="path66857"
       cx="18.898373"
       cy="83.654404"
       rx="4.926116"
       ry="5.0156817" />
    <path
       sodipodi:type="star"
       style="fill:#ff9500;fill-opacity:1;stroke:none;stroke-width:1;stroke-dasharray:none;stroke-opacity:1"
       id="path66965"
       inkscape:flatsided="false"
       sodipodi:sides="5"
       sodipodi:cx="46.395058"
       sodipodi:cy="79.176117"
       sodipodi:r1="3.3030212"
       sodipodi:r2="1.6515106"
       sodipodi:arg1="-0.21866895"
       sodipodi:arg2="0.40964958"
       inkscape:rounded="0"
       inkscape:randomized="0"
       d="m 49.619424,78.459591 -1.709501,1.374303 0.162975,2.187359 -1.835304,-1.201149 -2.02994,0.83093 0.57522,-2.116654 -1.417547,-1.673817 2.19081,-0.107014 1.153848,-1.865406 0.778775,2.050516 z"
       inkscape:transform-center-x="-0.097317348"
       inkscape:transform-center-y="-0.22141969"
       transform="translate(1.7913148,3.7617612)" />
    <path
       style="fill:#3d8e00;fill-opacity:1;stroke:none;stroke-width:1;stroke-dasharray:none;stroke-opacity:1"
       d="m 35.920362,84.805254 -1.70625,6.730934 5.015682,0.179131 -1.074788,-6.986127 z"
       id="path70893"
       sodipodi:nodetypes="ccccc" />
    <path
       style="fill:#251604;fill-opacity:1;stroke:none;stroke-width:1;stroke-dasharray:none;stroke-opacity:1"
       d="m 17.479782,86.132259 -1.266651,-15.45314 1.519981,-3.039962 h 3.039962 l 1.773311,1.773309 -1.773311,3.293292 -0.759991,13.933159 z"
       id="path71363" />
  </g>
</svg>
