<?xml version="1.0" encoding="UTF-8" standalone="no"?>
<!-- Created with Inkscape (http://www.inkscape.org/) -->

<svg
   width="210mm"
   height="297mm"
   viewBox="0 0 210 297"
   version="1.1"
   id="svg49950"
   inkscape:version="1.2.1 (9c6d41e410, 2022-07-14)"
   sodipodi:docname="tents.svg"
   xmlns:inkscape="http://www.inkscape.org/namespaces/inkscape"
   xmlns:sodipodi="http://sodipodi.sourceforge.net/DTD/sodipodi-0.dtd"
   xmlns:xlink="http://www.w3.org/1999/xlink"
   xmlns="http://www.w3.org/2000/svg"
   xmlns:svg="http://www.w3.org/2000/svg">
  <sodipodi:namedview
     id="namedview49952"
     pagecolor="#c9c9c9"
     bordercolor="#000000"
     borderopacity="0.25"
     inkscape:showpageshadow="2"
     inkscape:pageopacity="0"
     inkscape:pagecheckerboard="0"
     inkscape:deskcolor="#d1d1d1"
     inkscape:document-units="mm"
     showgrid="false"
     inkscape:zoom="1.0444209"
     inkscape:cx="351.86963"
     inkscape:cy="546.71444"
     inkscape:window-width="1920"
     inkscape:window-height="1009"
     inkscape:window-x="1912"
     inkscape:window-y="-8"
     inkscape:window-maximized="1"
     inkscape:current-layer="layer1" />
  <defs
     id="defs49947">
    <linearGradient
       inkscape:collect="always"
       id="linearGradient57663">
      <stop
         style="stop-color:#1c201b;stop-opacity:1;"
         offset="0"
         id="stop57659" />
      <stop
         style="stop-color:#848484;stop-opacity:1;"
         offset="1"
         id="stop57661" />
    </linearGradient>
    <linearGradient
       inkscape:collect="always"
       id="linearGradient57655">
      <stop
         style="stop-color:#1c201b;stop-opacity:1;"
         offset="0"
         id="stop57651" />
      <stop
         style="stop-color:#81887f;stop-opacity:1;"
         offset="1"
         id="stop57653" />
    </linearGradient>
    <linearGradient
       inkscape:collect="always"
       id="linearGradient57587">
      <stop
         style="stop-color:#1c201b;stop-opacity:1;"
         offset="0"
         id="stop57583" />
      <stop
         style="stop-color:#7a7a7a;stop-opacity:1;"
         offset="1"
         id="stop57585" />
    </linearGradient>
    <linearGradient
       inkscape:collect="always"
       id="linearGradient53693">
      <stop
         style="stop-color:#ca0090;stop-opacity:1;"
         offset="0"
         id="stop53689" />
      <stop
         style="stop-color:#e778c6;stop-opacity:1;"
         offset="1"
         id="stop53691" />
    </linearGradient>
    <linearGradient
       inkscape:collect="always"
       id="linearGradient53394">
      <stop
         style="stop-color:#ba220b;stop-opacity:1;"
         offset="0"
         id="stop53390" />
      <stop
         style="stop-color:#d88886;stop-opacity:1;"
         offset="1"
         id="stop53392" />
    </linearGradient>
    <linearGradient
       inkscape:collect="always"
       id="linearGradient53164">
      <stop
         style="stop-color:#ba740b;stop-opacity:1;"
         offset="0"
         id="stop53160" />
      <stop
         style="stop-color:#ffc246;stop-opacity:1;"
         offset="1"
         id="stop53162" />
    </linearGradient>
    <linearGradient
       inkscape:collect="always"
       id="linearGradient52250">
      <stop
         style="stop-color:#235a93;stop-opacity:1;"
         offset="0"
         id="stop52246" />
      <stop
         style="stop-color:#8cc2ff;stop-opacity:1;"
         offset="1"
         id="stop52248" />
    </linearGradient>
    <linearGradient
       inkscape:collect="always"
       xlink:href="#linearGradient52250"
       id="linearGradient52252"
       x1="61.955761"
       y1="42.999016"
       x2="71.167023"
       y2="35.905769"
       gradientUnits="userSpaceOnUse"
       gradientTransform="matrix(0.96547862,0,0,0.96547862,-11.966386,-28.576005)" />
    <linearGradient
       inkscape:collect="always"
       xlink:href="#linearGradient53164"
       id="linearGradient53078"
       gradientUnits="userSpaceOnUse"
       x1="61.955761"
       y1="42.999016"
       x2="71.167023"
       y2="35.905769"
       gradientTransform="translate(90.18309,-29.257756)" />
    <linearGradient
       inkscape:collect="always"
       xlink:href="#linearGradient53394"
       id="linearGradient53239"
       gradientUnits="userSpaceOnUse"
       gradientTransform="translate(-12.41563,29.008185)"
       x1="61.955761"
       y1="42.999016"
       x2="71.167023"
       y2="35.905769" />
    <linearGradient
       inkscape:collect="always"
       xlink:href="#linearGradient53693"
       id="linearGradient53469"
       gradientUnits="userSpaceOnUse"
       gradientTransform="matrix(0.94821794,0,0,0.94821794,96.426546,34.656907)"
       x1="61.955761"
       y1="42.999016"
       x2="71.167023"
       y2="35.905769" />
    <radialGradient
       inkscape:collect="always"
       xlink:href="#linearGradient57587"
       id="radialGradient57591"
       cx="28.499645"
       cy="135.15164"
       fx="28.499645"
       fy="135.15164"
       r="9.4998817"
       gradientTransform="matrix(1,0,0,1.3733334,0,-50.45662)"
       gradientUnits="userSpaceOnUse" />
    <radialGradient
       inkscape:collect="always"
       xlink:href="#linearGradient57655"
       id="radialGradient57657"
       cx="38.886181"
       cy="141.73823"
       fx="38.886181"
       fy="141.73823"
       r="5.699928"
       gradientTransform="matrix(1,0,0,1.3111113,0,-44.096365)"
       gradientUnits="userSpaceOnUse" />
    <radialGradient
       inkscape:collect="always"
       xlink:href="#linearGradient57663"
       id="radialGradient57665"
       cx="21.416402"
       cy="142.11822"
       fx="21.416402"
       fy="142.11822"
       r="6.9765824"
       gradientTransform="matrix(1,0,0,1.1982794,0,-28.179118)"
       gradientUnits="userSpaceOnUse" />
  </defs>
  <g
     inkscape:label="Ebene 1"
     inkscape:groupmode="layer"
     id="layer1">
    <path
       style="fill:#1869c4;fill-opacity:1;stroke:none;stroke-width:0.965479;stroke-opacity:1"
       d="M 14.667548,27.459022 61.709297,48.212737 57.558556,16.390376 34.037679,7.0512033 c 0,0 -14.478435,10.1352547 -19.370131,20.4078187 z"
       id="path50492"
       sodipodi:nodetypes="ccccc" />
    <path
       style="fill:url(#linearGradient52252);fill-opacity:1;stroke:none;stroke-width:0.965479"
       d="M 34.642995,7.0512033 46.489907,1.1709847 68.973097,10.856051 57.558556,16.390376 Z"
       id="path50494"
       sodipodi:nodetypes="ccccc" />
    <path
       style="fill:#5aa8ff;fill-opacity:1;stroke:none;stroke-width:0.965479;stroke-opacity:1"
       d="M 61.363403,47.520947 90.072703,30.917975 68.973097,10.510156 57.21266,16.390376 Z"
       id="path50496" />
    <path
       style="fill:#2f405f;fill-opacity:1;stroke:none;stroke-width:0.965479"
       d="m 70.356678,42.332519 -6.917903,-21.7914 6.572009,-3.458953 13.489913,17.986552 z"
       id="path50498" />
    <path
       style="fill:#ee1717;fill-opacity:1;stroke:none;stroke-width:0.965479"
       d="M 57.21266,20.195223 72.086156,12.239632 76.582793,17.42806 58.596241,27.459022 Z"
       id="path50500" />
    <path
       style="fill:#ffffff;stroke:#757575;stroke-width:0.965479"
       d="M 38.534316,6.0135184 1.5235289,29.534394"
       id="path50506" />
    <path
       style="fill:#ffffff;stroke:#757575;stroke-width:0.965479"
       d="M 56.866765,13.623213 55.829078,55.476537"
       id="path50508" />
    <path
       style="fill:#ffffff;stroke:#757575;stroke-width:0.965479"
       d="M 64.130566,9.8183657 101.14135,30.226184"
       id="path50510" />
    <path
       style="fill:none;fill-opacity:1;stroke:#000000;stroke-width:0.965479;stroke-opacity:1"
       d="m 0.9966122,26.944759 1.7120939,6.603792"
       id="path51916" />
    <path
       style="fill:none;fill-opacity:1;stroke:#000000;stroke-width:0.965479;stroke-opacity:1"
       d="m 58.474054,52.136999 -5.13628,5.380869"
       id="path52188" />
    <path
       style="fill:none;fill-opacity:1;stroke:#000000;stroke-width:0.965479;stroke-opacity:1"
       d="m 100.29807,26.700174 1.46751,6.848377"
       id="path52190" />
    <path
       style="fill:#eda033;fill-opacity:1;stroke:none;stroke-width:1;stroke-opacity:1"
       d="M 117.76934,28.780844 166.4931,50.276623 162.19394,17.31643 137.83206,7.6433293 c 0,0 -14.99612,10.4976477 -20.06272,21.1375147 z"
       id="path50492-1"
       sodipodi:nodetypes="ccccc" />
    <path
       style="fill:url(#linearGradient53078);fill-opacity:1;stroke:none;stroke-width:1"
       d="m 138.45902,7.6433293 12.27051,-6.09047 23.28709,10.0313617 -11.82268,5.732209 z"
       id="path50494-0"
       sodipodi:nodetypes="ccccc" />
    <path
       style="fill:#ebd2b0;fill-opacity:1;stroke:none;stroke-width:1;stroke-opacity:1"
       d="M 166.13483,49.560097 195.87066,32.363474 174.01662,11.225959 161.83568,17.31643 Z"
       id="path50496-6" />
    <path
       style="fill:#96621f;fill-opacity:1;stroke:none;stroke-width:1"
       d="m 175.44967,44.186153 -7.16526,-22.570567 6.807,-3.58263 13.97225,18.629674 z"
       id="path50498-1" />
    <path
       style="fill:#38ee17;fill-opacity:1;stroke:none;stroke-width:1"
       d="m 161.83568,21.257322 15.40531,-8.240049 4.65741,5.373944 -18.62967,10.389627 z"
       id="path50500-6" />
    <path
       style="fill:#ffffff;stroke:#757575;stroke-width:1"
       d="M 142.48948,6.5685413 104.15534,30.930422"
       id="path50506-4" />
    <path
       style="fill:#ffffff;stroke:#757575;stroke-width:1"
       d="m 161.47742,14.450325 -1.07479,43.34982"
       id="path50508-5" />
    <path
       style="fill:#ffffff;stroke:#757575;stroke-width:1"
       d="m 169.00094,10.509433 38.33414,21.137515"
       id="path50510-1" />
    <path
       style="fill:none;fill-opacity:1;stroke:#000000;stroke-width:1;stroke-opacity:1"
       d="m 103.60959,28.248193 1.77331,6.839915"
       id="path51916-6" />
    <path
       style="fill:none;fill-opacity:1;stroke:#000000;stroke-width:1;stroke-opacity:1"
       d="m 163.14217,54.341199 -5.31993,5.573266"
       id="path52188-0" />
    <path
       style="fill:none;fill-opacity:1;stroke:#000000;stroke-width:1;stroke-opacity:1"
       d="m 206.46164,27.994862 1.51998,7.093246"
       id="path52190-5" />
    <path
       style="fill:#b91b0d;fill-opacity:1;stroke:none;stroke-width:1;stroke-opacity:1"
       d="M 15.17062,87.046785 63.894382,108.54256 59.595222,75.582371 35.23334,65.90927 c 0,0 -14.99612,10.497648 -20.06272,21.137515 z"
       id="path50492-1-0"
       sodipodi:nodetypes="ccccc" />
    <path
       style="fill:url(#linearGradient53239);fill-opacity:1;stroke:none;stroke-width:1"
       d="M 35.8603,65.90927 48.13081,59.8188 71.417902,69.850162 59.595222,75.582371 Z"
       id="path50494-0-8"
       sodipodi:nodetypes="ccccc" />
    <path
       style="fill:#e5938a;fill-opacity:1;stroke:none;stroke-width:1;stroke-opacity:1"
       d="M 63.536112,107.82603 93.271942,90.629415 71.417902,69.4919 59.23696,75.582371 Z"
       id="path50496-6-7" />
    <path
       style="fill:#540800;fill-opacity:1;stroke:none;stroke-width:1"
       d="m 72.850952,102.45209 -7.16526,-22.570563 6.807,-3.58263 13.97225,18.629678 z"
       id="path50498-1-6" />
    <path
       style="fill:#f1ebf4;fill-opacity:1;stroke:none;stroke-width:1"
       d="m 59.23696,79.523263 15.405312,-8.240049 4.65741,5.373944 -18.62967,10.389627 z"
       id="path50500-6-2" />
    <path
       style="fill:#ffffff;stroke:#757575;stroke-width:1"
       d="M 39.89076,64.834482 1.5566202,89.196363"
       id="path50506-4-3" />
    <path
       style="fill:#ffffff;stroke:#757575;stroke-width:1"
       d="M 58.8787,72.716266 57.80391,116.06608"
       id="path50508-5-7" />
    <path
       style="fill:#ffffff;stroke:#757575;stroke-width:1"
       d="M 66.402222,68.775374 104.73636,89.912889"
       id="path50510-1-3" />
    <path
       style="fill:none;fill-opacity:1;stroke:#000000;stroke-width:1;stroke-opacity:1"
       d="m 1.0108702,86.514134 1.77331,6.839911"
       id="path51916-6-6" />
    <path
       style="fill:none;fill-opacity:1;stroke:#000000;stroke-width:1;stroke-opacity:1"
       d="M 60.543452,112.60714 55.22352,118.1804"
       id="path52188-0-5" />
    <path
       style="fill:none;fill-opacity:1;stroke:#000000;stroke-width:1;stroke-opacity:1"
       d="m 103.86292,86.260803 1.51998,7.093242"
       id="path52190-5-4" />
    <path
       style="fill:#ca0090;fill-opacity:1;stroke:none;stroke-width:0.948218;stroke-opacity:1"
       d="m 122.58433,89.690146 46.20074,20.382694 -4.07654,-31.253454 -23.10038,-9.172208 c 0,0 -14.21958,9.954058 -19.02382,20.042968 z"
       id="path50492-1-0-8"
       sodipodi:nodetypes="ccccc" />
    <path
       style="fill:url(#linearGradient53469);fill-opacity:1;stroke:none;stroke-width:0.948218"
       d="m 142.20264,69.647178 11.63512,-5.775093 22.08125,9.511917 -11.21048,5.435384 z"
       id="path50494-0-8-0"
       sodipodi:nodetypes="ccccc" />
    <path
       style="fill:#e778c6;fill-opacity:1;stroke:none;stroke-width:0.948218;stroke-opacity:1"
       d="M 168.44535,109.39342 196.6414,93.08726 175.91901,73.044292 164.36882,78.819386 Z"
       id="path50496-6-7-8" />
    <path
       style="fill:#540800;fill-opacity:1;stroke:none;stroke-width:0.948218"
       d="m 177.27785,104.29775 -6.79423,-21.401823 6.45452,-3.397118 13.24874,17.664992 z"
       id="path50498-1-6-0" />
    <path
       style="fill:#3bc200;fill-opacity:1;stroke:none;stroke-width:0.948218"
       d="m 164.36882,82.556209 14.60759,-7.813361 4.41624,5.09567 -17.66499,9.851628 z"
       id="path50500-6-2-9" />
    <path
       style="fill:#ffffff;stroke:#757575;stroke-width:0.948218"
       d="M 146.0244,68.628045 109.67529,91.728416"
       id="path50506-4-3-5" />
    <path
       style="fill:#ffffff;stroke:#757575;stroke-width:0.948218"
       d="m 164.0291,76.101694 -1.01913,41.105086"
       id="path50508-5-7-9" />
    <path
       style="fill:#ffffff;stroke:#757575;stroke-width:0.948218"
       d="m 171.16305,72.364869 36.34911,20.042974"
       id="path50510-1-3-8" />
    <path
       style="fill:none;fill-opacity:1;stroke:#000000;stroke-width:0.948218;stroke-opacity:1"
       d="m 109.1578,89.185078 1.68148,6.485725"
       id="path51916-6-6-9" />
    <path
       style="fill:none;fill-opacity:1;stroke:#000000;stroke-width:0.948218;stroke-opacity:1"
       d="m 165.60766,113.92695 -5.04446,5.28467"
       id="path52188-0-5-9" />
    <path
       style="fill:none;fill-opacity:1;stroke:#000000;stroke-width:0.948218;stroke-opacity:1"
       d="m 206.68395,88.944866 1.44127,6.725937"
       id="path52190-5-4-0" />
    <path
       style="fill:url(#radialGradient57657);fill-opacity:1;stroke:none;stroke-width:1;stroke-opacity:1"
       d="m 43.319459,137.55828 -5.066604,-1.26665 0.759991,-2.02664 -5.573262,2.5333 3.54662,7.59991 -3.799951,4.81327 9.119886,-1.51998 2.026642,-6.07992 0.253328,-4.30662"
       id="path57649" />
    <g
       aria-label="♻️"
       id="text57773-3-9"
       style="font-size:5.22135px;-inkscape-font-specification:sans-serif;text-align:center;text-anchor:middle;fill:#009a00;stroke-width:0.154173;fill-opacity:1">
      <path
         d="m 40.162667,139.26707 q 0.0204,-0.0102 0.05354,-0.0306 0.03314,-0.023 0.06884,-0.0433 0.03569,-0.0204 0.06884,-0.0357 0.03314,-0.0153 0.05354,-0.0153 0.04079,0 0.06884,0.0306 0.03059,0.0281 0.03059,0.0688 0,0.0663 -0.02295,0.14787 -0.0204,0.0816 -0.03314,0.14532 -0.02804,0.14277 -0.06119,0.28299 -0.03059,0.13767 -0.06119,0.2779 -0.01785,0.0816 -0.03314,0.17081 -0.0153,0.0867 -0.04079,0.16827 -0.01275,0.0357 -0.03824,0.0586 -0.02294,0.0204 -0.06119,0.0204 -0.0102,0 -0.09433,-0.0229 -0.08158,-0.0255 -0.203959,-0.0612 -0.122375,-0.0382 -0.265146,-0.0816 -0.142772,-0.0459 -0.270246,-0.0867 -0.127474,-0.0408 -0.221806,-0.0714 -0.09178,-0.0306 -0.117276,-0.0408 -0.03314,-0.0128 -0.05354,-0.0383 -0.01785,-0.0255 -0.01785,-0.0612 0,-0.0561 0.05099,-0.0867 l 0.229454,-0.13512 -0.196311,-0.33398 -0.504798,0.80054 q -0.02804,0.0433 -0.07393,0.0688 -0.04589,0.0255 -0.09688,0.0255 -0.06119,0 -0.109628,-0.0306 l -0.606778,-0.38242 q -0.04334,-0.028 -0.07138,-0.0739 -0.02549,-0.0459 -0.02549,-0.0969 0,-0.0561 0.03314,-0.10963 l 0.683263,-1.08353 -0.0051,0.008 q 0.06374,-0.10707 0.173365,-0.16571 0.112177,-0.0586 0.234553,-0.0586 h 0.752099 q 0.130023,0 0.242201,0.0637 0.112177,0.0637 0.178464,0.17846 z m -1.937611,2.30219 q 0,0.0408 -0.03059,0.0714 -0.02804,0.0306 -0.06884,0.0306 -0.0204,0 -0.05864,-0.0153 -0.03824,-0.0178 -0.08158,-0.0408 -0.04334,-0.0229 -0.08413,-0.0459 -0.03824,-0.0229 -0.05864,-0.0331 l -0.181013,0.34418 h 0.938211 q 0.08413,0 0.142771,0.0612 0.06119,0.0586 0.06119,0.14277 v 0.71895 q 0,0.0841 -0.06119,0.14277 -0.05864,0.0612 -0.142771,0.0612 h -1.287491 0.02549 q -0.127475,0 -0.234553,-0.0586 -0.107079,-0.0586 -0.175915,-0.16571 l -0.405368,-0.63738 q -0.07393,-0.11727 -0.07393,-0.25749 0,-0.11983 0.05609,-0.22691 l 0.336533,-0.64502 -0.193761,-0.10198 q -0.02549,-0.0128 -0.04079,-0.0382 -0.0153,-0.0255 -0.0153,-0.0535 0,-0.0357 0.01785,-0.0561 0.0204,-0.0229 0.05099,-0.0382 0.0204,-0.0102 0.112177,-0.0459 0.09433,-0.0357 0.219256,-0.0816 0.127475,-0.0459 0.270246,-0.0969 0.142771,-0.051 0.262597,-0.0918 0.122376,-0.0433 0.203959,-0.0714 0.08413,-0.028 0.09178,-0.028 0.07138,0 0.09688,0.0739 0.0076,0.0255 0.03314,0.11982 0.02804,0.0943 0.06119,0.22181 0.03569,0.12747 0.07139,0.27025 0.03824,0.14277 0.06884,0.26514 0.03314,0.12238 0.05354,0.20906 0.0204,0.0841 0.0204,0.0969 z m 2.149218,0.29319 -0.438512,-0.83878 q -0.02294,-0.0408 -0.02294,-0.0943 0,-0.0561 0.02804,-0.10453 0.03059,-0.051 0.08158,-0.0765 l 0.639921,-0.33144 q 0.04079,-0.0229 0.09433,-0.0229 0.05609,0 0.104529,0.0306 0.05099,0.028 0.07648,0.079 l 0.599129,1.15492 v 0.005 q 0.04079,0.0969 0.04079,0.19631 0,0.13003 -0.06629,0.23965 l -0.382424,0.65012 q -0.06629,0.11218 -0.178464,0.17592 -0.112177,0.0637 -0.242201,0.0637 l -0.729153,-0.003 v 0.21925 q 0,0.0433 -0.03059,0.0714 -0.02804,0.0306 -0.07139,0.0306 -0.04334,0 -0.06884,-0.0255 l -0.882123,-0.80819 q -0.0153,-0.0153 -0.02549,-0.0357 -0.0102,-0.0204 -0.0102,-0.0408 0,-0.0433 0.03569,-0.0739 l 0.887222,-0.80309 q 0.03314,-0.028 0.06884,-0.028 0.04079,0 0.07139,0.0306 0.03059,0.0306 0.03059,0.0714 l -0.0025,0.26769 z"
         id="path59422"
         style="fill:#009a00;fill-opacity:1" />
    </g>
    <path
       style="fill:url(#radialGradient57591);fill-opacity:1;stroke:none;stroke-width:1;stroke-opacity:1"
       d="m 27.612988,122.10514 0.25333,3.29329 -5.066603,1.51999 -3.799952,-0.25333 0.75999,3.54662 -0.75999,2.02664 1.519981,5.82659 0.25333,5.06661 3.039962,5.0666 1.266651,-0.75999 4.559943,-0.25333 0.759989,-2.02664 3.039965,1.77331 3.54662,-0.75999 1.013323,-3.03996 -2.533304,-3.03997 -0.25333,-2.78663 0.506661,-2.78663 v -3.79995 l 0.506661,-3.29329 -2.533303,-2.02665 -2.786632,-0.25332 z"
       id="path57581" />
    <path
       style="fill:url(#radialGradient57665);fill-opacity:1;stroke:none;stroke-width:1;stroke-opacity:1"
       d="m 15.959801,146.67817 0.75999,-6.07992 4.813274,-6.83992 4.306612,5.0666 c 0,0 3.546622,1.51998 2.279972,3.54663 -1.26665,2.02664 -4.053283,6.33325 -4.053283,6.33325 l -6.079924,1.77331 -3.546622,-4.55994 3.293292,1.51998 z"
       id="path57647" />
    <g
       aria-label="♻️"
       id="text57773"
       style="font-size:11.1522px;-inkscape-font-specification:sans-serif;text-align:center;text-anchor:middle;fill:#00a300;stroke-width:0.329295;fill-opacity:1">
      <path
         d="m 31.071082,129.81888 q 0.04356,-0.0218 0.114353,-0.0653 0.07079,-0.049 0.147027,-0.0926 0.07624,-0.0436 0.147026,-0.0762 0.07079,-0.0327 0.114353,-0.0327 0.08713,0 0.147026,0.0653 0.06534,0.0599 0.06534,0.14702 0,0.14158 -0.04901,0.31584 -0.04356,0.17425 -0.07079,0.31038 -0.0599,0.30495 -0.13069,0.60445 -0.06535,0.29405 -0.130689,0.59355 -0.03812,0.17425 -0.07079,0.36484 -0.03267,0.18514 -0.08713,0.35939 -0.02723,0.0762 -0.08168,0.12525 -0.04901,0.0436 -0.130689,0.0436 -0.02178,0 -0.201481,-0.049 -0.174253,-0.0545 -0.435632,-0.13069 -0.26138,-0.0817 -0.566323,-0.17425 -0.304943,-0.098 -0.577213,-0.18514 -0.272271,-0.0871 -0.473751,-0.15247 -0.196035,-0.0653 -0.250489,-0.0871 -0.07079,-0.0272 -0.114354,-0.0817 -0.03812,-0.0545 -0.03812,-0.13069 0,-0.1198 0.108908,-0.18515 l 0.490087,-0.2886 -0.419297,-0.71335 -1.078191,1.70986 q -0.0599,0.0926 -0.157917,0.14702 -0.09802,0.0545 -0.206926,0.0545 -0.130689,0 -0.234152,-0.0653 L 25.60389,131.3327 q -0.09257,-0.0599 -0.152471,-0.15792 -0.05445,-0.098 -0.05445,-0.20692 0,-0.1198 0.07079,-0.23415 l 1.45937,-2.3143 -0.01089,0.0163 q 0.136135,-0.2287 0.370288,-0.35395 0.239598,-0.12524 0.500978,-0.12524 h 1.606396 q 0.277715,0 0.517314,0.13613 0.239598,0.13614 0.381178,0.38118 z m -4.138512,4.9172 q 0,0.0871 -0.06534,0.15247 -0.0599,0.0653 -0.147026,0.0653 -0.04356,0 -0.125244,-0.0327 -0.08168,-0.0381 -0.174253,-0.0871 -0.09257,-0.049 -0.179699,-0.098 -0.08168,-0.049 -0.125244,-0.0708 l -0.386624,0.73513 h 2.003911 q 0.179698,0 0.304942,0.13069 0.13069,0.12525 0.13069,0.30494 v 1.53561 q 0,0.1797 -0.13069,0.30494 -0.125244,0.13069 -0.304942,0.13069 h -2.749933 0.05446 q -0.272271,0 -0.500978,-0.12524 -0.228707,-0.12525 -0.375733,-0.35395 l -0.865821,-1.36136 q -0.157917,-0.25048 -0.157917,-0.54998 0,-0.25594 0.119799,-0.48464 l 0.718795,-1.37769 -0.413852,-0.21782 q -0.05445,-0.0272 -0.08713,-0.0817 -0.03267,-0.0545 -0.03267,-0.11435 0,-0.0762 0.03812,-0.1198 0.04356,-0.049 0.108908,-0.0817 0.04356,-0.0218 0.239599,-0.098 0.20148,-0.0762 0.468305,-0.17425 0.27227,-0.098 0.577213,-0.20693 0.304943,-0.10891 0.560877,-0.19603 0.26138,-0.0926 0.435633,-0.15248 0.179699,-0.0599 0.196035,-0.0599 0.152472,0 0.206926,0.15791 0.01634,0.0545 0.07079,0.25594 0.0599,0.20148 0.13069,0.47375 0.07624,0.27227 0.152471,0.57721 0.08168,0.30494 0.147026,0.56632 0.07079,0.26138 0.114354,0.44653 0.04356,0.1797 0.04356,0.20692 z m 4.590481,0.62622 -0.936611,-1.79154 q -0.04901,-0.0871 -0.04901,-0.20148 0,-0.11979 0.0599,-0.22326 0.06535,-0.10891 0.174253,-0.16336 l 1.366798,-0.7079 q 0.08713,-0.049 0.20148,-0.049 0.119799,0 0.223262,0.0653 0.108908,0.0599 0.163363,0.16881 l 1.279671,2.46677 v 0.0109 q 0.08713,0.20693 0.08713,0.4193 0,0.27771 -0.14158,0.51187 l -0.816812,1.38858 q -0.14158,0.2396 -0.381178,0.37573 -0.239598,0.13614 -0.517314,0.13614 l -1.557388,-0.005 v 0.46831 q 0,0.0926 -0.06535,0.15247 -0.0599,0.0653 -0.152471,0.0653 -0.09257,0 -0.147026,-0.0545 l -1.884112,-1.7262 q -0.03267,-0.0327 -0.05445,-0.0762 -0.02178,-0.0436 -0.02178,-0.0871 0,-0.0926 0.07624,-0.15792 l 1.895003,-1.7153 q 0.07079,-0.0599 0.147026,-0.0599 0.08713,0 0.152471,0.0653 0.06535,0.0653 0.06535,0.15248 l -0.0054,0.57176 z"
         id="path59416"
         style="fill:#00a300;fill-opacity:1" />
    </g>
    <g
       aria-label="☣️"
       id="text63581"
       style="font-size:6.67439px;-inkscape-font-specification:sans-serif;text-align:center;text-anchor:middle;fill:#ffe600;stroke-width:0.197078">
      <path
         d="m 22.40452,142.097 q 0.09777,-0.16621 0.146655,-0.34871 0.04888,-0.1825 0.04888,-0.37478 0,-0.10755 -0.01955,-0.22813 -0.01955,-0.12384 -0.05866,-0.24117 -0.03911,-0.12058 -0.09777,-0.22812 -0.0554,-0.11081 -0.1271,-0.19228 -0.02281,-0.0228 -0.04563,-0.0228 -0.02607,0 -0.04237,0.0163 -0.01629,0.0163 -0.01629,0.0424 0,0.003 0.0033,0.013 0.0033,0.01 0.0033,0.013 0.04237,0.12384 0.0717,0.2379 0.03259,0.11407 0.03259,0.25094 0,0.23465 -0.09125,0.44322 -0.09125,0.20858 -0.250942,0.36501 -0.156431,0.15643 -0.365005,0.24768 -0.208575,0.088 -0.443222,0.088 -0.237905,0 -0.44648,-0.088 -0.208575,-0.0913 -0.365006,-0.24768 -0.156431,-0.15643 -0.247682,-0.36501 -0.08799,-0.20857 -0.08799,-0.44648 0,-0.13361 0.02607,-0.24442 0.02933,-0.11406 0.07822,-0.2379 0.0065,-0.013 0.0065,-0.0261 0,-0.0261 -0.01955,-0.0424 -0.01955,-0.0196 -0.04563,-0.0196 -0.02607,0 -0.04237,0.0228 -0.07496,0.0847 -0.13036,0.19228 -0.0554,0.10754 -0.09451,0.22812 -0.03911,0.11733 -0.05866,0.23791 -0.01955,0.12058 -0.01955,0.23139 0,0.19228 0.04888,0.37478 0.04888,0.1825 0.143395,0.34871 -0.22161,0 -0.426926,0.0652 -0.205316,0.0619 -0.381301,0.17924 -0.172726,0.11733 -0.312862,0.28354 -0.136877,0.1662 -0.218351,0.37152 -0.0033,0.007 -0.0033,0.013 0,0.007 0,0.013 0,0.0261 0.0163,0.0424 0.01629,0.0163 0.04237,0.0163 0.02933,0 0.04889,-0.0261 0.09125,-0.10429 0.175985,-0.18902 0.08799,-0.088 0.211834,-0.15643 0.123841,-0.0684 0.263977,-0.10429 0.140136,-0.0359 0.283531,-0.0359 0.237906,0 0.44648,0.0913 0.211834,0.088 0.368265,0.24443 0.156431,0.15643 0.247682,0.365 0.09125,0.20858 0.09125,0.44648 0,0.15318 -0.04237,0.29983 -0.03911,0.14665 -0.114064,0.27701 -0.07496,0.1271 -0.182503,0.23791 -0.104287,0.10754 -0.237905,0.1825 -0.08473,0.0489 -0.182503,0.0847 -0.09451,0.0359 -0.19228,0.0522 -0.02607,0.007 -0.04888,0.007 -0.02281,0 -0.04563,0.007 -0.02607,0.007 -0.03911,0.0196 -0.01304,0.013 -0.01304,0.0391 0,0.0261 0.01955,0.0424 0.02281,0.013 0.05214,0.0196 0.02933,0.007 0.05866,0.01 0.03259,0 0.04889,0 0.205315,0 0.397595,-0.0424 0.19228,-0.0456 0.361747,-0.13688 0.172726,-0.0913 0.312862,-0.22487 0.143395,-0.13688 0.247682,-0.31938 0.104288,0.1825 0.244424,0.31938 0.143395,0.13688 0.312862,0.22813 0.172726,0.088 0.365006,0.13362 0.192279,0.0424 0.397595,0.0424 0.01955,0 0.04889,0 0.03259,-0.003 0.06192,-0.01 0.02933,-0.007 0.04889,-0.0196 0.02281,-0.0163 0.02281,-0.0424 0,-0.0293 -0.01304,-0.0391 -0.01304,-0.013 -0.03911,-0.0196 -0.06844,-0.0195 -0.1271,-0.0293 -0.0554,-0.01 -0.110805,-0.0228 -0.05214,-0.0163 -0.107547,-0.0359 -0.05214,-0.0196 -0.117323,-0.0587 -0.136877,-0.0782 -0.244423,-0.18576 -0.107547,-0.10755 -0.182503,-0.23791 -0.07496,-0.13036 -0.117323,-0.27701 -0.03911,-0.14665 -0.03911,-0.30309 0,-0.2379 0.09125,-0.44648 0.09125,-0.20857 0.247683,-0.36174 0.156431,-0.15643 0.365005,-0.24443 0.208575,-0.0913 0.446481,-0.0913 0.153172,0 0.296567,0.0391 0.146654,0.0391 0.277013,0.11407 0.114064,0.0652 0.195539,0.15317 0.08147,0.0847 0.169467,0.17924 0.02281,0.0228 0.04563,0.0228 0.02607,0 0.04237,-0.0163 0.01629,-0.0163 0.01629,-0.0424 0,-0.007 -0.0033,-0.013 0,-0.007 0,-0.01 -0.06844,-0.20206 -0.208575,-0.36827 -0.140136,-0.1662 -0.325898,-0.28353 -0.182503,-0.11732 -0.394336,-0.1825 -0.208575,-0.0652 -0.413891,-0.0652 z m -1.251448,1.02332 q -0.07496,0 -0.140136,-0.0261 -0.06192,-0.0293 -0.110805,-0.075 -0.04563,-0.0489 -0.07496,-0.1108 -0.02607,-0.0652 -0.02607,-0.14014 0,-0.0717 0.02607,-0.13688 0.02933,-0.0652 0.07496,-0.1108 0.04888,-0.0489 0.110805,-0.075 0.06518,-0.0293 0.140136,-0.0293 0.0717,0 0.136877,0.0293 0.06518,0.0261 0.110806,0.075 0.04888,0.0456 0.07496,0.1108 0.02933,0.0652 0.02933,0.13688 0,0.075 -0.02933,0.14014 -0.02607,0.0619 -0.07496,0.1108 -0.04563,0.0456 -0.110806,0.075 -0.06518,0.0261 -0.136877,0.0261 z m -0.632242,-1.48935 q -0.04888,0 -0.08473,-0.0358 -0.03259,-0.0391 -0.03259,-0.0847 0,-0.0456 0.04563,-0.0847 0.04563,-0.0391 0.117323,-0.0684 0.0717,-0.0293 0.156431,-0.0489 0.08799,-0.0228 0.169467,-0.0359 0.08473,-0.013 0.153172,-0.0196 0.0717,-0.007 0.107546,-0.007 0.0554,0 0.179244,0.0163 0.123841,0.013 0.250942,0.0456 0.1271,0.0293 0.22161,0.0815 0.09777,0.0489 0.09777,0.12058 0,0.0489 -0.03585,0.0847 -0.03259,0.0358 -0.08148,0.0358 -0.02281,0 -0.0554,-0.013 -0.149913,-0.0619 -0.283531,-0.0978 -0.13036,-0.0391 -0.293309,-0.0391 -0.162949,0 -0.299826,0.0358 -0.133618,0.0359 -0.280272,0.10103 -0.01304,0.007 -0.02607,0.01 -0.0098,0.003 -0.02607,0.003 z m -0.02281,2.31387 q 0,-0.0359 -0.01304,-0.0554 -0.01304,-0.0228 -0.03911,-0.0424 -0.123841,-0.0978 -0.228129,-0.19554 -0.104287,-0.10102 -0.182503,-0.2379 -0.08147,-0.14014 -0.114064,-0.27701 -0.02933,-0.13688 -0.0554,-0.29331 -0.0065,-0.0489 -0.03911,-0.0782 -0.02933,-0.0326 -0.08148,-0.0326 -0.0554,0 -0.08473,0.0359 -0.02933,0.0359 -0.02933,0.088 0,0.16295 0.0554,0.33894 0.0554,0.17272 0.146654,0.33567 0.09451,0.15969 0.218351,0.29657 0.123842,0.13362 0.263978,0.21509 0.02933,0.0196 0.06518,0.0196 0.04563,0 0.08148,-0.0359 0.03585,-0.0359 0.03585,-0.0815 z m 2.04664,-1.13086 q 0.0554,0 0.08799,0.0391 0.03259,0.0391 0.03259,0.0945 0,0.0456 -0.01304,0.088 -0.0098,0.0391 -0.01955,0.0815 -0.03259,0.13362 -0.09125,0.26398 -0.05866,0.13036 -0.140137,0.25094 -0.07822,0.12058 -0.179243,0.22161 -0.101029,0.10103 -0.218352,0.17273 -0.02933,0.0196 -0.06518,0.0196 -0.04888,0 -0.08473,-0.0326 -0.03259,-0.0326 -0.03259,-0.0815 0,-0.0554 0.05214,-0.0978 0.140136,-0.11407 0.228128,-0.20532 0.09125,-0.0912 0.149913,-0.18902 0.06192,-0.10103 0.101029,-0.22161 0.03911,-0.12384 0.07822,-0.29983 0.0098,-0.0456 0.03585,-0.075 0.02933,-0.0293 0.07822,-0.0293 z m -4.904764,-0.0456 q 0,-0.48559 0.123841,-0.93207 0.1271,-0.44974 0.355229,-0.84081 0.228128,-0.39108 0.547508,-0.71046 0.322639,-0.32264 0.713717,-0.55077 0.391077,-0.22813 0.837557,-0.35197 0.449739,-0.1271 0.935327,-0.1271 0.485588,0 0.932068,0.1271 0.44974,0.12384 0.840817,0.35197 0.391078,0.22813 0.710458,0.55077 0.322639,0.31938 0.550767,0.71046 0.228129,0.39107 0.35197,0.84081 0.1271,0.44648 0.1271,0.93207 0,0.48559 -0.1271,0.93533 -0.123841,0.44648 -0.35197,0.83756 -0.228128,0.39107 -0.550767,0.71045 -0.31938,0.32264 -0.710458,0.55077 -0.391077,0.22813 -0.840817,0.35197 -0.44648,0.1271 -0.932068,0.1271 -0.485588,0 -0.935327,-0.1271 -0.44648,-0.12384 -0.837557,-0.35197 -0.391078,-0.22813 -0.713717,-0.55077 -0.31938,-0.31938 -0.547508,-0.71045 -0.228129,-0.39108 -0.355229,-0.83756 -0.123841,-0.44974 -0.123841,-0.93533 z m 3.513179,-3.04389 q -0.420408,0 -0.811486,0.11081 -0.387818,0.10755 -0.726752,0.30634 -0.335675,0.19554 -0.615947,0.47581 -0.277013,0.27702 -0.475811,0.61595 -0.195539,0.33568 -0.306344,0.72675 -0.107546,0.38782 -0.107546,0.80823 0,0.42041 0.107546,0.81149 0.110805,0.38782 0.306344,0.72675 0.198798,0.33567 0.475811,0.61595 0.280272,0.27701 0.615947,0.47255 0.338934,0.1988 0.726752,0.30634 0.391078,0.11081 0.811486,0.11081 0.420409,0 0.808227,-0.11081 0.391078,-0.10754 0.726753,-0.30634 0.338934,-0.19554 0.615947,-0.47255 0.280272,-0.28028 0.475811,-0.61595 0.198798,-0.33893 0.306344,-0.72675 0.110805,-0.39108 0.110805,-0.81149 0,-0.42041 -0.110805,-0.80823 -0.107546,-0.39107 -0.306344,-0.72675 -0.195539,-0.33893 -0.475811,-0.61595 -0.277013,-0.28027 -0.615947,-0.47581 -0.335675,-0.19879 -0.726753,-0.30634 -0.387818,-0.11081 -0.808227,-0.11081 z"
         id="path65983" />
    </g>
  </g>
</svg>
